<?xml version="1.0" encoding="UTF-8" standalone="no"?>
<!DOCTYPE svg PUBLIC "-//W3C//DTD SVG 1.1//EN" "http://www.w3.org/Graphics/SVG/1.1/DTD/svg11.dtd">
<svg width="100%" height="100%" viewBox="0 0 1000 1000" version="1.1" xmlns="http://www.w3.org/2000/svg" xmlns:xlink="http://www.w3.org/1999/xlink" xml:space="preserve" xmlns:serif="http://www.serif.com/" style="fill-rule:evenodd;clip-rule:evenodd;stroke-linejoin:round;stroke-miterlimit:1.41421;">
    <g transform="matrix(10.6074,0,0,8.59522,-1065.82,-4999.15)">
        <path d="M147.615,581.619L151.654,589.182L156.811,582.737L159.577,591.127L165.654,586.048L167.04,594.942L173.803,591.423L173.757,600.481L180.946,598.658L179.469,607.53L186.808,607.473L183.957,615.819L191.164,617.53L187.048,625.029L193.846,628.443L188.624,634.807L194.752,639.791L188.624,644.776L193.846,651.14L187.048,654.553L191.164,662.053L183.957,663.764L186.808,672.11L179.469,672.053L180.946,680.925L173.757,679.102L173.803,688.159L167.04,684.64L165.654,693.535L159.577,688.455L156.811,696.845L151.654,690.4L147.615,697.963L143.576,690.4L138.419,696.845L135.654,688.455L129.577,693.535L128.191,684.64L121.428,688.159L121.474,679.102L114.285,680.925L115.762,672.053L108.423,672.11L111.274,663.764L104.067,662.053L108.183,654.553L101.384,651.14L106.607,644.776L100.479,639.791L106.607,634.807L101.384,628.443L108.183,625.029L104.067,617.53L111.274,615.819L108.423,607.473L115.762,607.53L114.285,598.658L121.474,600.481L121.428,591.423L128.191,594.942L129.577,586.048L135.654,591.127L138.419,582.737L143.576,589.182L147.615,581.619Z"/>
    </g>
</svg>
