<?xml version="1.0" encoding="UTF-8" standalone="no"?>
<!DOCTYPE svg PUBLIC "-//W3C//DTD SVG 1.1//EN" "http://www.w3.org/Graphics/SVG/1.1/DTD/svg11.dtd">
<svg width="100%" height="100%" viewBox="0 0 1158 1000" version="1.1" xmlns="http://www.w3.org/2000/svg" xmlns:xlink="http://www.w3.org/1999/xlink" xml:space="preserve" xmlns:serif="http://www.serif.com/" style="fill-rule:evenodd;clip-rule:evenodd;stroke-linejoin:round;stroke-miterlimit:1.41421;">
    <g transform="matrix(2.26085,0,0,2.26085,0.0230281,-78.777)">
        <path d="M61.188,116.688C61.188,133.579 47.485,147.282 30.594,147.282C13.688,147.281 0,133.578 0,116.688C0,99.798 13.688,86.094 30.594,86.094C47.484,86.094 61.188,99.797 61.188,116.688Z" style="fill-rule:nonzero;"/>
        <path d="M512,116.688C512,133.579 498.312,147.282 481.406,147.282C464.515,147.282 450.812,133.579 450.812,116.688C450.812,99.797 464.515,86.094 481.406,86.094C498.313,86.094 512,99.797 512,116.688Z" style="fill-rule:nonzero;"/>
        <path d="M286.594,65.438C286.594,82.329 272.891,96.016 256,96.016C239.109,96.016 225.406,82.328 225.406,65.438C225.406,48.532 239.109,34.844 256,34.844C272.891,34.844 286.594,48.531 286.594,65.438Z" style="fill-rule:nonzero;"/>
        <path d="M435.359,381.156L462.094,174.656L353.109,251.672L256,123.391L158.891,251.672L49.906,174.656L76.641,381.156L435.359,381.156Z" style="fill-rule:nonzero;"/>
        <path d="M80.781,413.156L89.063,477.156L422.938,477.156L431.219,413.156L80.781,413.156Z" style="fill-rule:nonzero;"/>
    </g>
</svg>
