<?xml version="1.0" encoding="UTF-8" standalone="no"?>
<!DOCTYPE svg PUBLIC "-//W3C//DTD SVG 1.1//EN" "http://www.w3.org/Graphics/SVG/1.1/DTD/svg11.dtd">
<svg width="100%" height="100%" viewBox="0 0 1213 1000" version="1.1" xmlns="http://www.w3.org/2000/svg" xmlns:xlink="http://www.w3.org/1999/xlink" xml:space="preserve" xmlns:serif="http://www.serif.com/" style="fill-rule:evenodd;clip-rule:evenodd;stroke-linejoin:round;stroke-miterlimit:1.41421;">
    <g transform="matrix(1,0,0,1,-353.738,-45.3185)">
        <g id="path46" transform="matrix(5.06542,0,0,5.06405,-1518.62,-1338.53)">
            <path d="M590.231,294.343C595.855,300.562 599.016,308.106 599.877,315.865L609.001,313.991C607.795,304.677 603.9,295.589 597.119,288.106C589.871,280.093 580.504,275.146 570.644,273.27L567.801,282.215C576.179,283.557 584.103,287.583 590.231,294.343" style="fill-rule:nonzero;"/>
        </g>
        <g id="path50" transform="matrix(5.06542,0,0,5.06405,-1518.62,-1338.53)">
            <path d="M575.967,306.075C579.486,309.966 581.315,314.726 581.629,319.608L590.803,317.726C590.137,311.315 587.535,304.996 582.858,299.832C578.055,294.536 571.835,291.26 565.322,290.023L562.479,298.979C566.925,299.602 571.167,301.499 574.629,304.718C575.091,305.148 575.537,305.602 575.967,306.075" style="fill-rule:nonzero;"/>
        </g>
        <g id="path54" transform="matrix(5.06542,0,0,5.06405,-1518.62,-1338.53)">
            <path d="M563.866,323.437L572.405,321.505C571.942,318.437 570.625,315.421 568.359,312.937C565.977,310.289 562.879,308.625 559.639,307.926L557.021,316.284C558.654,316.904 560.219,317.801 561.469,319.177C561.469,319.177 562.967,320.62 563.866,323.437" style="fill-rule:nonzero;"/>
        </g>
        <g id="path58" transform="matrix(5.06542,0,0,5.06405,-1518.62,-1338.53)">
            <path d="M553.073,387.022L553.073,451.754C553.068,462.246 544.57,470.735 534.081,470.74L395.592,470.74C385.101,470.735 376.612,462.246 376.606,451.754L376.606,387.024L388.226,387.024L388.226,451.754C388.231,455.819 391.526,459.115 395.592,459.12L534.081,459.12C538.149,459.115 541.442,455.819 541.445,451.754L541.445,387.022L553.073,387.022Z" style="fill-rule:nonzero;"/>
        </g>
        <g id="path62" transform="matrix(5.06542,0,0,5.06405,-1518.62,-1338.53)">
            <path d="M464.638,320.174L546.501,320.174C554.803,320.327 559.658,327.258 559.658,332.687L559.658,368.637C559.658,369.73 559.453,370.927 559.097,371.962C558.466,373.79 557.138,375.427 555.627,376.613C554.011,377.881 551.814,378.511 549.775,378.511L539.17,378.511C539.17,378.519 526.462,378.519 526.462,378.519C521.027,378.519 517.239,374.071 517.239,368.637L517.239,360.842C517.239,355.407 515.429,353.591 509.994,353.591L464.647,353.591L419.301,353.591C413.865,353.591 412.054,355.407 412.054,360.842L412.054,368.637C412.054,374.071 408.269,378.519 402.833,378.519C402.833,378.519 390.125,378.519 390.125,378.511L379.521,378.511C377.479,378.511 375.282,377.881 373.666,376.613C372.159,375.427 370.83,373.79 370.201,371.962C369.843,370.927 369.638,369.73 369.638,368.637L369.638,332.687C369.638,327.258 374.493,320.327 382.794,320.174L464.638,320.174Z" style="fill-rule:nonzero;"/>
        </g>
        <g id="path66" transform="matrix(5.06542,0,0,5.06405,-1518.62,-1338.53)">
            <path d="M402.223,387.72L402.223,448.069L412.645,448.069L412.645,424.064L426.248,424.064L426.248,413.198L412.645,413.198L412.645,398.665L427.427,398.665L427.427,387.72L412.645,387.72L402.223,387.72Z" style="fill-rule:nonzero;"/>
        </g>
        <g id="path70" transform="matrix(5.06542,0,0,5.06405,-1518.62,-1338.53)">
            <path d="M467.096,448.069L494.644,448.069L494.644,437.209L477.514,437.209L477.514,422.311L494.644,422.311L494.644,411.454L477.514,411.454L477.514,398.397L494.644,398.397L494.644,387.533L467.096,387.533L467.096,448.069Z" style="fill-rule:nonzero;"/>
        </g>
        <g id="path74" transform="matrix(5.06542,0,0,5.06405,-1518.62,-1338.53)">
            <path d="M499.84,448.069L527.397,448.069L527.397,437.209L510.263,437.209L510.263,422.311L527.397,422.311L527.397,411.454L510.263,411.454L510.263,398.397L527.397,398.397L527.397,387.533L499.84,387.533L499.84,448.069Z" style="fill-rule:nonzero;"/>
        </g>
        <g id="path78" transform="matrix(5.06542,0,0,5.06405,-1518.62,-1338.53)">
            <path d="M453.979,409.17C453.979,409.17 453.775,412.67 451.022,412.659L441.542,412.659L441.542,396.99L450.118,396.99C451.271,397.069 453.026,397.761 453.807,400.222C453.807,400.222 454.813,402.542 453.979,409.17M461.691,427.821C461.679,427.53 461.87,422.415 457.294,419.639C458.441,419.139 460.374,417.93 461.523,415.519C461.693,415.162 462.058,414.113 462.058,414.113C463.042,410.821 463.277,405.542 462.963,401.823C462.598,397.473 462.026,395.766 462.026,395.766C461.277,392.886 458.937,388.279 451.607,387.755L431.125,387.755L431.125,448.069L441.542,448.069L441.542,423.454L447.709,423.454C449.357,423.454 451.497,425.211 451.497,430.399L451.497,444.733C451.545,445.735 451.782,447.547 452.383,448.418L462.543,448.418C462.543,448.418 461.691,447.271 461.691,443.769L461.691,427.821Z" style="fill-rule:nonzero;"/>
        </g>
    </g>
</svg>
