<?xml version="1.0" encoding="UTF-8" standalone="no"?><!DOCTYPE svg PUBLIC "-//W3C//DTD SVG 1.1//EN" "http://www.w3.org/Graphics/SVG/1.1/DTD/svg11.dtd"><svg width="100%" height="100%" viewBox="0 0 576 1000" version="1.1" xmlns="http://www.w3.org/2000/svg" xmlns:xlink="http://www.w3.org/1999/xlink" xml:space="preserve" xmlns:serif="http://www.serif.com/" style="fill-rule:evenodd;clip-rule:evenodd;stroke-linejoin:round;stroke-miterlimit:1.41421;"><path d="M128.212,978.015C98.897,1007.33 51.3,1007.33 21.986,978.015C-7.327,948.701 -7.327,901.103 21.986,871.789L393.776,500L21.986,128.211C-7.327,98.897 -7.327,51.299 21.986,21.985C51.3,-7.328 98.898,-7.328 128.212,21.985L553.114,446.887C567.747,461.521 575.076,480.711 575.099,499.907L575.099,500C575.099,500 575.099,500.093 575.099,500.093C575.076,519.29 567.747,538.479 553.114,553.113C553.114,553.113 128.212,978.015 128.212,978.015Z"/></svg>