<?xml version="1.0" encoding="UTF-8" standalone="no"?><!DOCTYPE svg PUBLIC "-//W3C//DTD SVG 1.1//EN" "http://www.w3.org/Graphics/SVG/1.1/DTD/svg11.dtd"><svg width="100%" height="100%" viewBox="0 0 576 1000" version="1.1" xmlns="http://www.w3.org/2000/svg" xmlns:xlink="http://www.w3.org/1999/xlink" xml:space="preserve" xmlns:serif="http://www.serif.com/" style="fill-rule:evenodd;clip-rule:evenodd;stroke-linejoin:round;stroke-miterlimit:1.41421;"><path d="M446.889,21.985C476.204,-7.328 523.801,-7.328 553.115,21.985C582.428,51.299 582.428,98.897 553.115,128.211L181.325,500L553.115,871.789C582.428,901.103 582.428,948.701 553.115,978.015C523.801,1007.33 476.203,1007.33 446.889,978.015L21.987,553.113C7.354,538.479 0.025,519.29 0.002,500.093L0.002,500C0.002,500 0.002,499.907 0.002,499.907C0.025,480.711 7.354,461.521 21.987,446.887C21.987,446.887 446.889,21.985 446.889,21.985Z"/></svg>