<?xml version="1.0" encoding="UTF-8" standalone="no"?>
<!DOCTYPE svg PUBLIC "-//W3C//DTD SVG 1.1//EN" "http://www.w3.org/Graphics/SVG/1.1/DTD/svg11.dtd">
<svg width="100%" height="100%" viewBox="0 0 980 1000" version="1.1" xmlns="http://www.w3.org/2000/svg" xmlns:xlink="http://www.w3.org/1999/xlink" xml:space="preserve" xmlns:serif="http://www.serif.com/" style="fill-rule:evenodd;clip-rule:evenodd;stroke-linejoin:round;stroke-miterlimit:1.41421;">
    <g transform="matrix(1.95312,0,0,1.95312,-10.2,0)">
        <g>
            <g>
                <path d="M58.431,384.739L77.187,384.739C106.605,384.739 130.457,360.887 130.457,331.469L130.457,206.638C130.457,177.22 106.605,153.368 77.187,153.368L58.431,153.368C29.013,153.368 5.162,177.22 5.162,206.638L5.162,331.469C5.161,360.887 29.012,384.739 58.431,384.739Z" style="fill-rule:nonzero;"/>
                <path d="M453.526,172.682L453.526,89.007L364.501,0L358.942,0L156.405,0L156.405,331.468C156.405,375.649 120.467,411.587 76.286,411.587L57.53,411.587C37.507,411.587 19.224,404.158 5.161,391.966L5.161,446.04C5.161,482.468 34.693,512 71.121,512L440.879,512C477.307,512 506.839,482.468 506.839,446.04L506.839,237.402C506.839,205.309 483.896,178.582 453.526,172.682ZM183.254,26.849L353.384,26.849L354.757,28.221L354.757,99.286L425.838,99.286L426.678,100.124L426.678,171.442L183.254,171.442L183.254,26.849ZM235.037,430.387C225.432,430.387 217.644,422.599 217.644,412.995C217.644,403.391 225.432,395.594 235.037,395.594C244.643,395.594 252.438,403.39 252.438,412.995C252.438,422.6 244.643,430.387 235.037,430.387ZM235.037,373.692C225.432,373.692 217.644,365.905 217.644,356.299C217.644,346.694 225.432,338.898 235.037,338.898C244.643,338.898 252.438,346.694 252.438,356.299C252.438,365.904 244.643,373.692 235.037,373.692ZM235.037,317.013C225.432,317.013 217.644,309.226 217.644,299.621C217.644,290.016 225.432,282.22 235.037,282.22C244.643,282.22 252.438,290.016 252.438,299.621C252.438,309.226 244.643,317.013 235.037,317.013ZM324.543,430.387C314.937,430.387 307.15,422.599 307.15,412.995C307.15,403.391 314.937,395.594 324.543,395.594C334.148,395.594 341.944,403.39 341.944,412.995C341.944,422.6 334.147,430.387 324.543,430.387ZM324.543,373.692C314.937,373.692 307.15,365.905 307.15,356.299C307.15,346.694 314.937,338.898 324.543,338.898C334.148,338.898 341.944,346.694 341.944,356.299C341.943,365.904 334.147,373.692 324.543,373.692ZM324.543,317.013C314.937,317.013 307.15,309.226 307.15,299.621C307.15,290.016 314.937,282.22 324.543,282.22C334.148,282.22 341.944,290.016 341.944,299.621C341.943,309.226 334.147,317.013 324.543,317.013ZM414.048,430.387C404.442,430.387 396.655,422.599 396.655,412.995C396.655,403.391 404.442,395.594 414.048,395.594C423.662,395.594 431.448,403.39 431.448,412.995C431.448,422.6 423.662,430.387 414.048,430.387ZM414.048,373.692C404.442,373.692 396.655,365.905 396.655,356.299C396.655,346.694 404.442,338.898 414.048,338.898C423.662,338.898 431.448,346.694 431.448,356.299C431.449,365.904 423.662,373.692 414.048,373.692ZM414.048,317.013C404.442,317.013 396.655,309.226 396.655,299.621C396.655,290.016 404.442,282.22 414.048,282.22C423.662,282.22 431.448,290.016 431.448,299.621C431.449,309.226 423.662,317.013 414.048,317.013ZM414.921,255.878L235.929,255.878C226.044,255.878 218.03,247.864 218.03,237.978C218.03,228.093 226.044,220.079 235.929,220.079L414.922,220.079C424.807,220.079 432.821,228.093 432.821,237.978C432.821,247.863 424.806,255.878 414.921,255.878Z" style="fill-rule:nonzero;"/>
            </g>
        </g>
    </g>
</svg>
