<?xml version="1.0" encoding="UTF-8" standalone="no"?>
<!DOCTYPE svg PUBLIC "-//W3C//DTD SVG 1.1//EN" "http://www.w3.org/Graphics/SVG/1.1/DTD/svg11.dtd">
<svg width="100%" height="100%" viewBox="0 0 1000 1000" version="1.1" xmlns="http://www.w3.org/2000/svg" xmlns:xlink="http://www.w3.org/1999/xlink" xml:space="preserve" xmlns:serif="http://www.serif.com/" style="fill-rule:evenodd;clip-rule:evenodd;stroke-linejoin:round;stroke-miterlimit:1.41421;">
    <g transform="matrix(1.95312,0,0,1.95356,-0.000445677,-0.112847)">
        <path d="M488.738,367.907L442.863,332.141C419.609,314.008 386.703,315.383 364.914,335.246C356.043,343.332 348.039,351.278 343.792,356.828C343.433,357.297 342.999,357.676 342.522,357.992C342.476,358.023 342.436,358.066 342.386,358.098C326.1,368.227 246.764,297.079 231.136,280.805C214.327,264.66 138.945,180.519 155.117,168.149C160.667,163.903 168.609,155.899 176.699,147.027C196.562,125.238 197.933,92.332 179.805,69.082L144.039,23.207C141.23,19.605 137.977,16.516 134.535,13.703C134.371,13.566 134.211,13.429 134.043,13.297C132.394,11.977 130.707,10.747 128.941,9.618C128.727,9.477 128.503,9.356 128.289,9.219C120.734,4.513 112.269,1.552 103.437,0.513C103.379,0.505 103.32,0.497 103.265,0.489C96.137,-0.327 88.825,-0.034 81.61,1.79C62.797,6.544 -1.414,50.283 0.024,82.364C0.438,91.606 6.52,108.982 15.95,130.806C37.212,179.997 63.993,226.149 95.368,268.665C137.017,325.243 186.888,375.095 243.482,416.723C285.947,448.032 332.025,474.766 381.142,495.993C402.966,505.423 420.341,511.509 429.584,511.919C461.666,513.357 505.4,449.149 510.158,430.333C516.023,407.118 507.621,382.626 488.738,367.907Z" style="fill-rule:nonzero;"/>
    </g>
</svg>
